# xmcd CD database file
#
# Track frame offsets:
#	182
#	16857
#	33490
#	58155
#	72730
#	87160
#	100995
#	123300
#
# Disc length: 1911 seconds
#
# Revision: 0
# Processed by: cddbd v1.5PL3 Copyright (c) Steve Scherf et al.
# Submitted via: CDex 1.51
#
DISCID=6a077508
DTITLE=Hodina and Bienert - Silhouette
DYEAR=1900
DGENRE=Jazz
TTITLE0=Operation Blues
TTITLE1=My Romance
TTITLE2=Silhouette
TTITLE3=3/4
TTITLE4=Sweet Georgia Brown
TTITLE5=Renate
TTITLE6=Calice du Pape
TTITLE7=Lover Man
EXTD=
EXTT0=
EXTT1=
EXTT2=
EXTT3=
EXTT4=
EXTT5=
EXTT6=
EXTT7=
PLAYORDER=
